<svg xmlns="http://www.w3.org/2000/svg" viewBox="0 0 1366 768"><g id="MAIN"><path d="M1127.4678,317.5039c28.2536-104.7817,123.9541-181.8911,237.6644-181.8911,135.935,0,246.1322,110.1972,246.1322,246.1322s-110.1972,246.1322-246.1322,246.1322S1119,517.68,1119,381.745a246.4491,246.4491,0,0,1,8.4678-64.2411" fill="#f3eddb"/><polygon points="419.941 136.384 436.445 191.488 452.038 136.119 452.349 193.641 482.91 144.908 467.003 200.187 510.055 162.038 479.218 210.597 531.274 186.122 488.006 224.026 544.849 215.209 492.655 239.388 549.679 246.942 492.787 255.436 545.373 278.75 488.393 270.872 532.28 308.057 479.827 284.445 511.461 332.488 467.785 295.055 484.602 350.064 453.242 301.842 453.88 359.361 437.375 304.257 421.782 359.626 421.471 302.104 390.911 350.837 406.818 295.558 363.765 333.707 394.602 285.148 342.546 309.623 385.814 271.719 328.971 280.536 381.166 256.357 324.141 248.803 381.033 240.309 328.447 216.994 385.428 224.873 341.54 187.688 393.993 211.3 362.359 163.257 406.035 200.69 389.218 145.681 420.579 193.903 419.941 136.384" fill="#9c95b7"/><circle cx="855.5" cy="123.5" r="95.5" fill="#374d74"/><rect x="1" width="1362" height="768" fill="none"/></g><g id="new_main" data-name="new main"><polygon points="303.306 492.369 157.316 560.818 317.256 581.255 157.895 605.801 305.598 670.471 145.777 649.125 269.277 752.788 121.944 687.28 211.236 821.538 88.327 717.175 136.177 871.151 47.649 736.388 50.181 897.608 3.206 743.363 -39.785 898.766 -41.402 737.534 -126.434 874.53 -82.56 719.374 -202.744 826.864 -116.935 690.353 -262.534 759.629 -141.742 652.824 -300.96 678.274 -154.97 609.826 -314.909 589.388 -155.549 564.842 -303.251 500.172 -143.431 521.518 -266.931 417.855 -119.598 483.363 -208.89 349.105 -85.981 453.468 -133.831 299.492 -45.303 434.255 -47.835 273.035 -0.86 427.28 42.131 271.878 43.748 433.109 128.78 296.114 84.906 451.27 205.09 343.78 119.281 480.29 264.88 411.014 144.088 517.82 303.306 492.369" fill="#997196"/><polygon points="1086.651 678.33 964.932 733.893 1097.474 752.204 965.032 771.224 1087.046 826.135 954.611 807.071 1056.212 894.133 934.512 838.53 1007.47 950.69 906.364 863.053 944.768 991.223 872.448 878.651 873.186 1012.45 835.511 884.063 798.524 1012.65 798.546 878.849 726.83 991.806 764.547 863.432 663.912 951.609 736.268 839.061 614.868 895.314 716.002 807.71 583.67 827.482 705.389 771.919 572.847 753.608 705.289 734.588 583.275 679.677 715.71 698.741 614.109 611.679 735.809 667.282 662.851 555.122 763.956 642.76 725.553 514.589 797.873 627.161 797.135 493.362 834.809 621.749 871.797 493.163 871.775 626.963 943.491 514.006 905.774 642.38 1006.409 554.203 934.052 666.752 1055.453 610.498 954.319 698.102 1086.651 678.33" fill="#aed1e8"/></g></svg>