<svg xmlns="http://www.w3.org/2000/svg" viewBox="0 0 1366 768"><g id="Subway_2" data-name="Subway 2"><rect width="1366" height="768" fill="#48494c" opacity="0.92"/><rect x="360" width="104" height="356" fill="#974447"/><rect x="360" y="294" width="200" height="62" fill="#974447"/><rect x="485" y="294" width="75" height="289" fill="#974447"/><rect x="534" y="512" width="59" height="227" fill="#974447"/><rect x="560" y="212" width="41" height="201" fill="#974447"/><rect x="601" y="107" width="109" height="277" fill="#974447"/><rect x="710" width="40" height="261" fill="#974447"/><rect x="750" width="72" height="190" fill="#974447"/><rect x="593" y="598" width="31" height="170" fill="#974447"/><rect x="587" width="54" height="367" fill="#ffc757"/><rect x="641" y="190" width="31" height="322" fill="#ffc757"/><rect x="672" y="428" width="58" height="340" fill="#ffc757"/><rect x="1073" width="38" height="303" fill="#89ca87"/><rect x="1025" y="261" width="48" height="269" fill="#89ca87"/><rect x="1070" y="428" width="32" height="212" fill="#89ca87"/><rect x="1102" y="530" width="46" height="238" fill="#89ca87"/><rect x="1111" width="26" height="201" fill="#89ca87"/><rect x="548" width="39" height="201" fill="#90a5ff"/><rect x="568" y="201" width="19" height="200" fill="#90a5ff"/><rect x="587" y="379" width="43" height="193" fill="#90a5ff"/><rect x="630" y="539" width="25" height="229" fill="#90a5ff"/><rect x="720" y="710" width="282" height="38" fill="#e8b772"/><rect x="818" y="683" width="252" height="27" fill="#e8b772"/><rect x="1070" y="669" width="296" height="41" fill="#e8b772"/><rect x="625" y="748" width="236" height="20" fill="#e8b772"/></g></svg>