<svg xmlns="http://www.w3.org/2000/svg" viewBox="0 0 1926.1738 1012.6496"><g id="Layer_2" data-name="Layer 2"><g id="MAIN"><path d="M1442.3773,317.5039c28.2536-104.7817,123.954-181.8911,237.6643-181.8911,135.935,0,246.1322,110.1972,246.1322,246.1322s-110.1972,246.1322-246.1322,246.1322S1433.9094,517.68,1433.9094,381.745a246.4449,246.4449,0,0,1,8.4679-64.2411" fill="#f3eddb"/><polygon points="734.85 136.384 751.354 191.488 766.947 136.119 767.259 193.641 797.819 144.908 781.912 200.187 824.964 162.038 794.128 210.597 846.184 186.122 802.915 224.026 859.758 215.209 807.564 239.388 864.589 246.942 807.696 255.436 860.283 278.75 803.302 270.872 847.19 308.057 794.737 284.445 826.371 332.488 782.695 295.055 799.512 350.064 768.151 301.842 768.789 359.361 752.285 304.257 736.692 359.626 736.381 302.104 705.82 350.837 721.727 295.558 678.675 333.707 709.512 285.148 657.455 309.623 700.724 271.719 643.881 280.536 696.075 256.357 639.051 248.803 695.943 240.309 643.357 216.994 700.337 224.873 656.449 187.688 708.902 211.3 677.269 163.257 720.945 200.69 704.127 145.681 735.488 193.903 734.85 136.384" fill="#9c95b7"/><circle cx="1170.4094" cy="123.5" r="95.5" fill="#374d74"/><rect x="315.9094" width="1362" height="768" fill="none"/></g><g id="new_main" data-name="new main"><polygon points="618.216 492.369 472.226 560.818 632.165 581.255 472.804 605.801 620.507 670.471 460.686 649.125 584.186 752.788 436.853 687.28 526.146 821.538 403.236 717.175 451.087 871.151 362.559 736.388 365.091 897.608 318.116 743.363 275.124 898.766 273.508 737.534 188.476 874.53 232.349 719.374 112.165 826.864 197.974 690.353 52.375 759.629 173.168 652.824 13.949 678.274 159.939 609.826 0 589.388 159.361 564.842 11.658 500.172 171.479 521.518 47.979 417.855 195.311 483.363 106.019 349.105 228.929 453.468 181.078 299.492 269.606 434.255 267.074 273.035 314.049 427.28 357.041 271.878 358.657 433.109 443.689 296.114 399.816 451.27 519.999 343.78 434.191 480.29 579.79 411.014 458.997 517.82 618.216 492.369" fill="#997196"/><polygon points="1401.56 678.33 1279.842 733.893 1412.383 752.204 1279.941 771.224 1401.955 826.135 1269.52 807.071 1371.121 894.133 1249.421 838.53 1322.379 950.69 1221.274 863.053 1259.677 991.223 1187.358 878.651 1188.096 1012.45 1150.421 884.063 1113.433 1012.65 1113.455 878.849 1041.739 991.806 1079.456 863.432 978.821 951.609 1051.178 839.061 929.777 895.314 1030.911 807.71 898.58 827.482 1020.298 771.919 887.756 753.608 1020.198 734.588 898.184 679.677 1030.62 698.741 929.018 611.679 1050.718 667.282 977.761 555.122 1078.866 642.76 1040.462 514.589 1112.782 627.161 1112.044 493.362 1149.719 621.749 1186.706 493.163 1186.684 626.963 1258.4 514.006 1220.683 642.38 1321.318 554.203 1248.962 666.752 1370.362 610.498 1269.228 698.102 1401.56 678.33" fill="#aed1e8"/></g></g></svg>